<?xml version="1.0" encoding="utf-8"?>
<!-- Generator: Adobe Illustrator 16.0.0, SVG Export Plug-In . SVG Version: 6.00 Build 0)  -->
<!DOCTYPE svg PUBLIC "-//W3C//DTD SVG 1.1//EN" "http://www.w3.org/Graphics/SVG/1.1/DTD/svg11.dtd">
<svg version="1.1" id="Layer_1" xmlns="http://www.w3.org/2000/svg" xmlns:xlink="http://www.w3.org/1999/xlink" x="0px" y="0px"
	 width="97.5px" height="96.333px" viewBox="0 0 97.5 96.333" enable-background="new 0 0 97.5 96.333" xml:space="preserve">
<path d="M13,47.06v8.418v3.692c0,10.279,8.332,18.611,18.611,18.611h34.62c10.279,0,18.611-8.332,18.611-18.611v-3.692V47.06H13z"/>
<path d="M31.586,41.83c-0.125,0-0.252-0.021-0.375-0.066c-0.566-0.207-0.861-0.834-0.654-1.402l7.513-20.641
	c0.207-0.567,0.834-0.861,1.402-0.654c0.568,0.207,0.859,0.835,0.654,1.403l-7.514,20.64C32.453,41.555,32.031,41.83,31.586,41.83z"
	/>
<path d="M66.281,41.725c-0.404,0.191-0.902,0.121-1.238-0.211L49.428,26.066c-0.43-0.424-0.434-1.117-0.01-1.547
	c0.426-0.43,1.119-0.433,1.549-0.008l15.615,15.446c0.43,0.425,0.434,1.117,0.01,1.547C66.498,41.599,66.395,41.672,66.281,41.725z"
	/>
<path d="M13,39.129v5.234h71.842v-5.234H13z M31.463,42.677c-0.879,0-1.592-0.714-1.592-1.593s0.713-1.592,1.592-1.592
	s1.592,0.713,1.592,1.592S32.342,42.677,31.463,42.677z M65.99,42.677c-0.879,0-1.592-0.714-1.592-1.593s0.713-1.592,1.592-1.592
	s1.592,0.713,1.592,1.592S66.869,42.677,65.99,42.677z"/>
</svg>
