<?xml version="1.0" encoding="utf-8"?>
<!-- Generator: Adobe Illustrator 16.0.0, SVG Export Plug-In . SVG Version: 6.00 Build 0)  -->
<!DOCTYPE svg PUBLIC "-//W3C//DTD SVG 1.1//EN" "http://www.w3.org/Graphics/SVG/1.1/DTD/svg11.dtd">
<svg version="1.1" id="Layer_1" xmlns="http://www.w3.org/2000/svg" xmlns:xlink="http://www.w3.org/1999/xlink" x="0px" y="0px"
	 width="1982px" height="763px" viewBox="0 0 1982 763" enable-background="new 0 0 1982 763" xml:space="preserve">
<path opacity="0.3" fill-rule="evenodd" clip-rule="evenodd" d="M1978,896c-675.599,0-1302.401,0-1978,0C0,611.028,0,325.972,0,41
	c16.929,9.227,32.909,27.177,39,47c5.298,17.241,5.002,49.976,2,70c-0.333,47.995-0.667,96.005-1,144
	c18.665-1.667,37.335-3.333,56-5c1-67.993,2-136.007,3-204c2.999-20.051-6.156-48.431,1-61c25.04-8.133,64.429-9.13,79,10
	c-3,6.999-6,14.001-9,21c-1,79.325-2,158.675-3,238c10.666,1.333,21.334,2.667,32,4c0.904-55.105,3.989-54.335-25-81
	c0-1.667,0-3.333,0-5c12.03-17.113,25.904-28.006,47-36c62.753-23.777,258.094-24.845,297,16c-0.811,20.45-13.515,70.762-4,95
	c0-0.667,0-1.333,0-2c7.999-16.332,16.001-32.668,24-49c9.999-20.331,20.001-40.669,30-61c6.768-22.295,10.737-82.027,6-110
	c-2.474-14.612-13.165-21.045-11-35c28.906-13.758,105.611-14.655,132,2c1.608,12.444-7.229,12.73-10,22
	c-5.58,18.671-5.175,105.995,0,123c53.328,116.988,106.672,234.012,160,351c14.332,30.664,28.668,61.336,43,92
	c1.333-0.333,2.667-0.667,4-1c35.33-77.659,70.67-155.341,106-233c10.666-23.998,21.334-48.002,32-72
	c4.496-19.178,4.488-99.896-1-119c-2.404-8.366-9.816-8.873-11-20c1.333-1.667,2.667-3.333,4-5c22.173-3.904,115.987-17.701,129,3
	c3.071,10.398-8.979,20.575-11,33c-5.349,32.876-0.836,75.553,5,104c8.902,43.392,41.396,77.5,55,118c0.333,0,0.667,0,1,0
	c0.333-20.665,0.667-41.335,1-62c-1.545-10.222-8.04-24.446-5-33c11.144-23.034,60.037-23.315,90-28
	c79.952-12.501,229.792-3.126,253,49c-0.333,1.333-0.667,2.667-1,4c-3.62,6.287-11.688,6.607-16,12
	c-11.047,13.817-8.204,44.047-8,69c0.333,0,0.667,0,1,0c10.332-1.333,20.667-2.667,31-4c-1-79.325-2-158.675-3-238
	c-3-6.999-6-14.001-9-21c1.333-1.667,2.667-3.333,4-5c21.176-9.033,55.541-17.196,78-2c-1.34,61.079,0.001,127.884,0,192
	c0,13.472-2.345,63.848,3,70c17.998,1.667,36.002,3.333,54,5c-0.333-47.995-0.667-96.005-1-144c-3.631-24.183-2.567-60.309,5-78
	c18.918-44.229,76.167-44.914,92-76c8.631-16.946-0.048-46.057-1-65c-3.991-1.86-6.874-3.156-9-7c-3.851-7.266-1.517-17.673,2-23
	c31.477-9.419,102.787-15.784,130,3c-0.333,6-0.667,12-1,18c-3.529,2.935-8.641,4.774-11,9c-27.331,105.623,58.005,74.959,91,130
	c14.52,24.223,9.962,139.987,10,181c0.333,0,0.667,0,1,0"/>
</svg>
