<?xml version="1.0" encoding="utf-8"?>
<!-- Generator: Adobe Illustrator 16.0.0, SVG Export Plug-In . SVG Version: 6.00 Build 0)  -->
<!DOCTYPE svg PUBLIC "-//W3C//DTD SVG 1.1//EN" "http://www.w3.org/Graphics/SVG/1.1/DTD/svg11.dtd">
<svg version="1.1" id="Layer_1" xmlns="http://www.w3.org/2000/svg" xmlns:xlink="http://www.w3.org/1999/xlink" x="0px" y="0px"
	 width="200px" height="200px" viewBox="0 0 200 200" enable-background="new 0 0 200 200" xml:space="preserve">
<path fill="#FFFFFF" d="M99.383,46.882c-8.837,0-14.548-6.017-14.548-15.329c0-6.916,4.39-13.407,8.262-19.133
	c1.737-2.568,3.378-4.994,4.271-7.002l1.957-4.402l2.052,4.358c0.921,1.958,2.422,4.353,4.01,6.886
	c3.819,6.095,8.147,13.003,8.147,19.294C113.535,41.008,108.112,46.882,99.383,46.882z M99.375,10.908
	c-0.8,1.284-1.7,2.614-2.625,3.982c-3.517,5.202-7.505,11.098-7.505,16.663c0,6.837,3.79,10.919,10.138,10.919
	c6.192,0,9.744-3.98,9.744-10.919c0-5.023-3.973-11.361-7.478-16.953C100.855,13.33,100.08,12.093,99.375,10.908z"/>
<rect x="-14.886" y="98.774" transform="matrix(0.7071 0.7071 -0.7071 0.7071 100.3685 -42.115)" fill="#FFFFFF" width="231.814" height="2.645"/>
<rect x="99.551" y="-16.121" transform="matrix(0.7069 0.7073 -0.7073 0.7069 100.8926 -41.7911)" fill="#FFFFFF" width="2.645" height="233.937"/>
<path fill="#FFFFFF" d="M122.164,188.444c-1.466-2.597-2.967-5.172-4.468-7.749c-2.511-4.31-5.106-8.768-7.475-13.22
	c-2.649-4.982-2.685-9.662-0.107-14.303c0.995-1.792,1.093-3.785,0.262-5.33c-0.769-1.425-2.225-2.322-3.998-2.459
	c-4.503-0.345-8.999-0.353-13.277-0.024c-1.89,0.146-3.42,1.066-4.201,2.525c-0.846,1.582-0.716,3.52,0.368,5.451
	c2.953,5.262,1.749,10.185,0.217,13.387c-2.322,4.858-5.124,9.647-7.835,14.278c-1.539,2.63-3.13,5.35-4.631,8.075
	c-1.537,2.789-1.772,5.143-0.698,6.993c1.085,1.868,3.292,2.84,6.557,2.89c2.246,0.031,4.491,0.041,6.736,0.041
	c1.667,0,3.336,0.006,5.003,0c1.663-0.006,3.325,0,4.987,0h0.115c1.632,0,3.264-0.008,4.896-0.004
	c3.846,0.01,7.694,0.012,11.541-0.023c2.306-0.02,5.543-0.347,7.025-2.913C124.67,193.482,123.312,190.477,122.164,188.444z
	 M93.882,150.746c-0.026-0.047-0.049-0.092-0.07-0.133c3.739-0.271,7.595-0.279,11.663,0.017c-3.405,6.147-3.381,12.87,0.074,19.37
	c1.605,3.018,3.303,6,5.004,9H88.97c1.853-3,3.672-6.572,5.29-9.957C97.188,162.918,97.054,156.395,93.882,150.746z"/>
<polygon fill="#FFFFFF" points="4.338,88.39 21.393,78.543 38.449,88.391 38.449,108.084 21.393,117.931 4.338,108.083 "/>
<g id="book_x5F_alt2">
	<path fill="#FFFFFF" d="M172.119,87.045c0,0-5.873-5.874-23.494-5.874v35.244c17.805,0,23.494,5.873,23.494,5.873
		s5.69-5.873,23.495-5.873V81.171C177.994,81.171,172.119,87.045,172.119,87.045z M154.498,87.045
		c7.466,0.625,12.046,2.353,14.685,3.752v23.655c-2.639-1.394-7.219-3.121-14.685-3.751V87.045z M189.74,110.701
		c-7.468,0.63-12.045,2.355-14.684,3.751V90.797c2.639-1.399,7.216-3.127,14.684-3.752V110.701z"/>
</g>
</svg>
