<?xml version="1.0" encoding="utf-8"?>
<!-- Generator: Adobe Illustrator 16.0.0, SVG Export Plug-In . SVG Version: 6.00 Build 0)  -->
<!DOCTYPE svg PUBLIC "-//W3C//DTD SVG 1.1//EN" "http://www.w3.org/Graphics/SVG/1.1/DTD/svg11.dtd">
<svg version="1.1" id="Layer_1" xmlns="http://www.w3.org/2000/svg" xmlns:xlink="http://www.w3.org/1999/xlink" x="0px" y="0px"
	 width="439.99px" height="92.836px" viewBox="0 0 439.99 92.836" enable-background="new 0 0 439.99 92.836" xml:space="preserve">
<g>
	<path fill="#F4A56A" d="M0,1.065h27.838c27.837,0,47.683,18.514,47.683,45.286S55.809,91.637,27.838,91.637H0V1.065z
		 M26.905,75.254c20.112,0,29.303-11.987,29.303-28.903c0-16.916-9.19-28.903-29.303-28.903h-8.258v57.806H26.905z"/>
	<path fill="#F4A56A" d="M90.416,1.065h18.647v90.572H90.416V1.065z"/>
	<path fill="#F4A56A" d="M120.278,73.789l15.184-8.791c3.996,6.526,9.19,11.321,18.381,11.321c7.726,0,12.653-3.863,12.653-9.19
		c0-6.393-5.061-8.658-13.585-12.387l-4.662-1.998c-13.452-5.728-22.376-12.92-22.376-28.104C125.872,10.655,136.528,0,153.177,0
		c11.854,0,20.379,4.129,26.506,14.917l-14.518,9.324c-3.197-5.728-6.66-7.992-11.988-7.992c-5.461,0-8.924,3.463-8.924,7.992
		c0,5.594,3.463,7.858,11.455,11.321l4.662,1.998c15.85,6.793,24.774,13.719,24.774,29.303c0,16.782-13.186,25.973-30.901,25.973
		C136.927,92.836,125.739,84.578,120.278,73.789z"/>
	<path fill="#F4A56A" d="M216.579,17.448h-25.84V1.065h70.327v16.383h-25.84v74.189h-18.647V17.448z"/>
	<path fill="#F4A56A" d="M271.817,1.065h18.647v90.572h-18.647V1.065z"/>
	<path fill="#F4A56A" d="M309.471,1.065h18.646v74.189h41.024v16.383h-59.671V1.065z"/>
	<path fill="#F4A56A" d="M380.319,1.065h18.646v74.189h41.025v16.383h-59.671V1.065z"/>
</g>
</svg>
