<?xml version="1.0" encoding="utf-8"?>
<!-- Generator: Adobe Illustrator 16.0.0, SVG Export Plug-In . SVG Version: 6.00 Build 0)  -->
<!DOCTYPE svg PUBLIC "-//W3C//DTD SVG 1.1//EN" "http://www.w3.org/Graphics/SVG/1.1/DTD/svg11.dtd">
<svg version="1.1" id="Layer_1" xmlns="http://www.w3.org/2000/svg" xmlns:xlink="http://www.w3.org/1999/xlink" x="0px" y="0px"
	 width="97.5px" height="96.333px" viewBox="0 -17.77 97.5 96.333" enable-background="new 0 -17.77 97.5 96.333"
	 xml:space="preserve">
<g id="Your_Icon">
	<path d="M61.139,45.02c0.387-0.62,0.611-1.352,0.611-2.135c0-2.242-1.818-4.06-4.061-4.06c-2.24,0-4.057,1.817-4.057,4.06
		c0,0.318,0.037,0.629,0.109,0.928c-1.598-0.145-3.215-0.223-4.851-0.223c-2.535,0-5.029,0.184-7.471,0.529
		c-2.635-15.701,0.054-25.701,3.993-31.999c0.73,1.075,1.963,1.781,3.362,1.781c1.947,0,3.57-1.37,3.966-3.2
		c0.389,0.123,0.801,0.191,1.23,0.191c2.242,0,4.059-1.818,4.059-4.062c0-0.062-0.004-0.123-0.01-0.186
		c0.754,0.47,1.516,0.987,2.258,1.56c3.295,2.539,6.141,6.036,6.137,10.524c0,1.087-0.168,2.24-0.537,3.467
		c-0.078,0.26,0.061,0.536,0.314,0.627c0.059,0.021,0.117,0.029,0.174,0.029c0.201,0,0.389-0.119,0.469-0.313
		c0.012-0.033,1.664-3.993,1.666-8.712c0.002-3.298-0.82-7.006-3.654-9.912c-0.717-0.736-1.557-1.412-2.539-2.02
		c0.076,0,0.152-0.001,0.23-0.001c3.162-0.001,6.578,0.466,9.486,1.903c2.908,1.443,5.318,3.819,6.578,7.754
		c0.07,0.217,0.268,0.356,0.484,0.356c0.043,0,0.088-0.005,0.131-0.018c0.264-0.071,0.426-0.333,0.369-0.599
		c-0.01-0.033-0.871-4.1-3.383-8.209c-2.5-4.098-6.734-8.291-13.41-8.289c-2.932,0-6.305,0.811-10.178,2.743
		c-6.447-7.605-12.508-10.301-17.802-10.3C23.604-12.711,16.377-0.947,15.876-0.151l0,0c-0.018,0.028-0.026,0.042-0.027,0.044
		c-0.139,0.232-0.07,0.533,0.158,0.684c0.226,0.15,0.531,0.096,0.692-0.123c3.433-4.668,7.901-6.209,12.483-6.219
		c4.352-0.002,8.778,1.438,12.272,2.997c-0.723-0.083-1.417-0.124-2.082-0.124C32.478-2.904,28.732,1.38,26.833,5.547
		c-1.921,4.177-2.128,8.297-2.133,8.33c-0.014,0.271,0.188,0.506,0.458,0.534c0.017,0.002,0.035,0.003,0.051,0.003
		c0.25,0,0.466-0.184,0.506-0.435C26.447,9.209,29.351,6.553,32.872,5c3.516-1.541,7.627-1.886,10.519-1.884
		c0.338,0,0.658,0.004,0.959,0.013C30.921,14.578,32.584,41.793,32.935,46.043c-11.79,3.721-21.798,11.451-28.421,21.598
		c1.446-0.421,2.973-0.658,4.539-0.658c2.444,0,4.785,0.566,6.866,1.516c2.033,0.932,4.309,1.476,6.665,1.476
		c2.37,0,4.645-0.544,6.677-1.476c2.066-0.951,4.415-1.516,6.863-1.516c2.438,0,4.787,0.566,6.865,1.516
		c2.024,0.932,4.285,1.476,6.659,1.476c2.369,0,4.637-0.544,6.684-1.476c2.072-0.951,4.422-1.516,6.844-1.516
		c2.449,0,4.795,0.566,6.873,1.516c2.018,0.932,4.314,1.476,6.656,1.476c2.371,0,4.631-0.544,6.684-1.476
		c2.072-0.951,4.416-1.516,6.85-1.516c0.934,0,1.854,0.084,2.75,0.24C85.67,56.242,74.363,48.154,61.139,45.02z"/>
</g>
</svg>
