<?xml version="1.0" encoding="utf-8"?>
<!-- Generator: Adobe Illustrator 16.0.0, SVG Export Plug-In . SVG Version: 6.00 Build 0)  -->
<!DOCTYPE svg PUBLIC "-//W3C//DTD SVG 1.1//EN" "http://www.w3.org/Graphics/SVG/1.1/DTD/svg11.dtd">
<svg version="1.1" id="Layer_1" xmlns="http://www.w3.org/2000/svg" xmlns:xlink="http://www.w3.org/1999/xlink" x="0px" y="0px"
	 width="97.5px" height="96.333px" viewBox="0 0 97.5 96.333" enable-background="new 0 0 97.5 96.333" xml:space="preserve">
<path fill="#231F20" d="M28.466,63.624c-4.292-12.006,1.695-25.243,13.355-30.068c-5.823-1.607-12.172-1.486-18.232,0.802
	C8.374,40.106,0.656,57.202,6.403,72.411c5.747,15.213,22.844,22.938,38.058,17.186c6.053-2.29,10.893-6.387,14.2-11.434
	C46.357,82.364,32.856,75.892,28.466,63.624"/>
<path fill="#231F20" d="M72.464,43.268l2.792-2.722l-3.857-0.561h-0.002l-1.021-0.147c-2.12-0.313-4.629-2.138-5.58-4.059
	l-0.098-0.192l-0.357-0.729v-0.003l-1.727-3.494l-1.727,3.494v0.003l-0.359,0.729l-0.096,0.192
	c-0.947,1.921-3.461,3.746-5.582,4.059l-0.513,0.074l-0.509,0.074l-3.859,0.561l2.79,2.722l0.371,0.355l0.372,0.363
	c1.533,1.496,2.494,4.45,2.129,6.561l-0.086,0.513l-0.746,4.347l3.452-1.812l0.451-0.24l0.46-0.236c1.898-1.002,5.004-1.002,6.9,0
	l0.455,0.236l0.453,0.24h0.004l3.449,1.812l-0.746-4.347l-0.086-0.513c-0.367-2.11,0.594-5.064,2.131-6.561l0.368-0.363
	L72.464,43.268z M78.579,22.303L78.41,21.99c-0.711-1.306-0.74-3.458-0.067-4.784l0.16-0.32l0.165-0.317l1.223-2.408l-2.654,0.493
	h-0.004l-0.354,0.065l-0.35,0.066c-1.461,0.271-3.516-0.366-4.566-1.417l-0.107-0.104l-0.397-0.397l-0.003-0.001l-1.912-1.907
	l-0.35,2.676v0.003l-0.073,0.56l-0.022,0.149c-0.191,1.474-1.432,3.232-2.754,3.911l-0.639,0.322v0.002L63.3,19.813l2.438,1.159
	v0.001l0.322,0.153l0.324,0.154c1.342,0.64,2.629,2.363,2.866,3.83l0.054,0.352l0.484,3.021l1.857-1.96l0.246-0.259l0.242-0.261
	c1.021-1.079,3.059-1.774,4.528-1.543l0.353,0.058l0.354,0.054h0.004l2.667,0.42L78.579,22.303z M86.883,78.223l-0.309-0.184
	c-1.274-0.762-2.391-2.601-2.487-4.086l-0.01-0.146l-0.033-0.562l0,0l-0.171-2.701l-2.037,1.774v0.003l-0.428,0.371l-0.113,0.1
	c-1.119,0.978-3.213,1.475-4.652,1.105l-0.692-0.174l-2.621-0.669l1.062,2.481h0.002l0.139,0.33l0.141,0.329
	c0.583,1.367,0.41,3.511-0.388,4.769l-0.188,0.302l-1.64,2.585l2.69-0.243h0.004l0.356-0.028l0.354-0.035
	c1.479-0.131,3.465,0.701,4.412,1.842l0.229,0.275l0.229,0.274l1.724,2.085l0.683-2.984l0.08-0.35
	c0.333-1.443,1.735-3.081,3.114-3.629l0.332-0.135l0.329-0.129l0.004-0.002l2.511-0.99l-2.319-1.393L86.883,78.223z M25.122,14.685
	l-0.307-0.182c-1.276-0.764-2.392-2.601-2.489-4.087l-0.01-0.147l-0.035-0.564V9.704l-0.174-2.696l-2.033,1.773l-0.003,0.002
	l-0.427,0.371l-0.111,0.098c-1.118,0.978-3.212,1.475-4.653,1.106l-0.691-0.175l-2.621-0.669l1.061,2.483v0.001l0.141,0.328
	l0.141,0.33c0.582,1.368,0.407,3.512-0.389,4.769l-0.192,0.301l-1.637,2.584l2.691-0.241l0.36-0.031l0.354-0.033
	c1.48-0.131,3.466,0.699,4.414,1.841l0.227,0.275l0.228,0.275h0.003l1.723,2.082l0.682-2.983l0.08-0.348
	c0.33-1.446,1.731-3.081,3.112-3.628l0.336-0.135l0.33-0.129v-0.002l2.516-0.994l-2.32-1.388L25.122,14.685z"/>
</svg>
