<?xml version="1.0" encoding="utf-8"?>
<!-- Generator: Adobe Illustrator 16.0.0, SVG Export Plug-In . SVG Version: 6.00 Build 0)  -->
<!DOCTYPE svg PUBLIC "-//W3C//DTD SVG 1.1//EN" "http://www.w3.org/Graphics/SVG/1.1/DTD/svg11.dtd">
<svg version="1.1" id="Layer_1" xmlns="http://www.w3.org/2000/svg" xmlns:xlink="http://www.w3.org/1999/xlink" x="0px" y="0px"
	 width="97.5px" height="96.333px" viewBox="0 -17.77 97.5 96.333" enable-background="new 0 -17.77 97.5 96.333"
	 xml:space="preserve">
<g>
	<path d="M14.245,26.911c0-4.397,3.564-7.97,7.971-7.97c4.397,0,7.961,3.573,7.961,7.97c0,4.398-3.563,7.962-7.961,7.962
		C17.809,34.873,14.245,31.309,14.245,26.911z"/>
	<path d="M80.456,34.873H33.805v-10.24c0-3.138,2.36-5.693,5.276-5.693h36.09c2.915,0,5.285,2.555,5.285,5.693V34.873z"/>
	<path d="M93.452,19.357v33.002c0,1.889-1.527,3.416-3.416,3.416c-0.944,0-1.797-0.389-2.417-1.01
		c-0.61-0.611-0.999-1.463-0.999-2.406v-5.693H9.94v5.98c0,1.721-1.407,3.129-3.129,3.129c-0.87,0-1.648-0.352-2.222-0.916
		c-0.565-0.574-0.917-1.352-0.917-2.213V5.129C3.672,3.398,5.079,2,6.81,2c0.861,0,1.639,0.352,2.203,0.916
		c0.574,0.565,0.926,1.343,0.926,2.213v35.846h76.68V19.357c0-1.889,1.526-3.416,3.416-3.416c0.944,0,1.796,0.379,2.416,1
		S93.452,18.413,93.452,19.357z"/>
</g>
</svg>
