<?xml version="1.0" encoding="utf-8"?>
<!-- Generator: Adobe Illustrator 16.0.0, SVG Export Plug-In . SVG Version: 6.00 Build 0)  -->
<!DOCTYPE svg PUBLIC "-//W3C//DTD SVG 1.1//EN" "http://www.w3.org/Graphics/SVG/1.1/DTD/svg11.dtd">
<svg version="1.1" id="Layer_1" xmlns="http://www.w3.org/2000/svg" xmlns:xlink="http://www.w3.org/1999/xlink" x="0px" y="0px"
	 width="97.5px" height="96.333px" viewBox="0 -17.77 97.5 96.333" enable-background="new 0 -17.77 97.5 96.333"
	 xml:space="preserve">
<path d="M77.67,1.396c0,0-0.757-10.983-29.35-10.983c-28.595,0-29.731,12.118-29.731,12.118l-3.408,23.102v35.6h5.369v4.04
	c0,2.929,2.373,5.302,5.302,5.302c2.928,0,5.302-2.373,5.302-5.302v-4.04h34.332v4.04c0,2.929,2.373,5.302,5.305,5.302
	c2.926,0,5.299-2.373,5.299-5.302v-4.04h5.368v-35.6L77.67,1.396z M34.088-4.476H62.55c1.621,0,2.934,1.313,2.934,2.935
	c0,1.62-1.312,2.935-2.934,2.935H34.088c-1.622,0-2.935-1.315-2.935-2.935C31.154-3.163,32.467-4.476,34.088-4.476z M23.744,6.759
	c0-1.185,0.96-2.147,2.146-2.147h44.857c1.186,0,2.148,0.962,2.148,2.147l2.147,20.513c0,1.185-0.961,2.147-2.147,2.147H23.743
	c-1.185,0-2.146-0.962-2.146-2.147L23.744,6.759z M25.852,50.431c-2.929,0-5.302-2.374-5.302-5.303s2.373-5.302,5.302-5.302
	c2.928,0,5.302,2.373,5.302,5.302S28.78,50.431,25.852,50.431z M70.786,50.431c-2.929,0-5.303-2.374-5.303-5.303
	s2.374-5.302,5.303-5.302s5.302,2.373,5.302,5.302S73.715,50.431,70.786,50.431z"/>
</svg>
